<svg width="164" height="655" viewBox="0 0 164 655" fill="none" xmlns="http://www.w3.org/2000/svg">
<path d="M6.92396 599.544C31.8291 647.332 79.6514 656.988 133.484 654.533C231.71 650.055 330.605 611.782 401.349 555.286C472.094 498.791 500.339 422.293 506.952 358.125C516.976 260.859 508.121 241.838 464.966 176.517C433.468 128.84 411.986 105.707 350.234 64.7178C288.483 23.729 182.454 -36.2265 116.278 30.8554C63.8945 83.9569 115.965 218.403 115.965 218.403C115.965 218.403 141.953 280.095 134.566 330.114C126.919 381.883 66.8537 445.747 66.8537 445.747C66.8537 445.747 -22.867 542.381 6.92396 599.544Z" fill="#FD0808"/>
</svg>
