<svg width="25" height="25" viewBox="0 0 25 25" fill="none" xmlns="http://www.w3.org/2000/svg">
<path d="M0.140625 24.8709L1.88523 18.5055C0.812532 16.643 0.240822 14.5271 0.246716 12.364C0.246716 5.58601 5.76343 0.0751953 12.5414 0.0751953C15.8302 0.0751953 18.9187 1.35418 21.235 3.67638C23.5572 5.99859 24.8362 9.087 24.8303 12.3699C24.8303 19.1479 19.3136 24.6587 12.5355 24.6587H12.5297C10.4727 24.6587 8.45106 24.1401 6.65341 23.1617L0.140625 24.8709ZM6.95989 20.9338L7.33121 21.1578C8.89899 22.089 10.6966 22.5782 12.5297 22.5841H12.5355C18.1642 22.5841 22.7497 18.0045 22.7497 12.3699C22.7497 9.64103 21.6888 7.07718 19.7615 5.14397C17.8342 3.21076 15.2644 2.14986 12.5355 2.14986C6.90095 2.14986 2.31548 6.72943 2.31548 12.364C2.31548 14.2913 2.85183 16.1715 3.87737 17.7982L4.11902 18.1872L3.08759 21.9534L6.95989 20.9338Z" fill="white"/>
<path d="M9.46781 7.21896C9.23794 6.70619 8.99629 6.6944 8.77822 6.68851C8.6014 6.68262 8.39511 6.68262 8.18882 6.68262C7.98254 6.68262 7.65248 6.75924 7.36957 7.06572C7.08666 7.37221 6.29688 8.11484 6.29688 9.62958C6.29688 11.1384 7.39904 12.6001 7.55228 12.8064C7.70552 13.0127 9.67999 16.2131 12.7979 17.4449C15.3912 18.4705 15.9217 18.2642 16.4816 18.2111C17.0474 18.1581 18.2969 17.4685 18.5562 16.7494C18.8097 16.0304 18.8097 15.4174 18.7331 15.2877C18.6564 15.1581 18.4501 15.0815 18.1437 14.9282C17.8372 14.775 16.3283 14.0323 16.0454 13.9262C15.7625 13.8202 15.5562 13.773 15.3558 14.0795C15.1495 14.386 14.5602 15.0756 14.3833 15.2818C14.2065 15.4881 14.0238 15.5117 13.7173 15.3585C13.4108 15.2052 12.4207 14.8811 11.2478 13.8319C10.3342 13.0186 9.71535 12.0107 9.53853 11.7042C9.36172 11.3978 9.52085 11.2327 9.67409 11.0795C9.80965 10.9439 9.98058 10.72 10.1338 10.5431C10.2871 10.3663 10.3401 10.2367 10.4403 10.0304C10.5405 9.82408 10.4933 9.64726 10.4167 9.49402C10.3401 9.34078 9.73893 7.82604 9.46781 7.21896Z" fill="white"/>
</svg>
